<svg xmlns="http://www.w3.org/2000/svg" viewBox="0 0 420 56" role="img" aria-labelledby="module006BrandTitle module006BrandDescription">
  <title id="module006BrandTitle">Toyota, Hyundai, and Turion Space customer brands</title>
  <desc id="module006BrandDescription">Verified vector Toyota and Hyundai emblems with the Turion Space customer mark.</desc>

  <rect x="0.5" y="0.5" width="130" height="55" rx="10" fill="#ffffff" stroke="#d9e3ec"/>
  <g transform="translate(9 13) scale(1.22)">
    <path fill="#EB0A1E" d="M12 3.848C5.223 3.848 0 7.298 0 12c0 4.702 5.224 8.152 12 8.152S24 16.702 24 12c0-4.702-5.223-8.152-12-8.152zm7.334 3.839c0 1.08-1.725 1.913-4.488 2.246-.26-2.58-1.005-4.279-1.963-4.913 2.948.184 6.45 1.227 6.45 2.667zM12 16.401c-.96 0-1.746-1.5-1.808-4.389.577.047 1.18.072 1.808.072.628 0 1.23-.025 1.807-.072-.061 2.89-.847 4.389-1.807 4.389zm0-6.308c-.59 0-1.155-.019-1.69-.054.261-1.728.92-3.15 1.69-3.15.77 0 1.428 1.422 1.689 3.15-.535.034-1.099.054-1.689.054zm-.882-5.075c-.956.633-1.706 2.333-1.964 4.915C6.391 9.6 4.665 8.767 4.665 7.687c0-1.44 3.504-2.49 6.453-2.669zM2.037 11.68a5.265 5.265 0 011.048-3.164c.27 1.547 2.522 2.881 5.972 3.37V12c0 3.772.879 6.203 2.087 6.97-5.107-.321-9.107-3.48-9.107-7.29zm10.823 7.29c1.207-.767 2.087-3.198 2.087-6.97v-.115c3.447-.488 5.704-1.826 5.972-3.37a5.26 5.26 0 011.049 3.165c-.004 3.81-4.008 6.969-9.109 7.29z"/>
  </g>
  <text x="47" y="34" font-family="Arial, Helvetica, sans-serif" font-size="13" font-weight="700" letter-spacing="0.35" fill="#EB0A1E">TOYOTA</text>

  <rect x="139.5" y="0.5" width="130" height="55" rx="10" fill="#ffffff" stroke="#d9e3ec"/>
  <g transform="translate(148 13) scale(1.22)">
    <path fill="#002C5F" d="M11.999 18.145c6.627 0 12.001-2.751 12.001-6.144 0-3.395-5.374-6.146-12.001-6.146C5.374 5.855 0 8.606 0 12.001c0 3.393 5.374 6.144 11.999 6.144m2.26-3.015c-.2.464-.545 1.454-1.336 1.85-.24.119-.537.174-.8.185H12c-2.214 0-4.276-.31-6.002-.834l-.066-.025c-.16-.053-.24-.127-.24-.218 0-.079.043-.14.099-.195l.109-.097c.4-.332 1.598-1.2 3.858-2.067.793-.301 1.786-.679 2.825-.9.608-.126 2.868-.473 1.675 2.301m6.062-6.194c.043-.074.1-.137.203-.142.056-.006.132.007.248.08 1.409.867 2.245 1.952 2.245 3.125 0 2.118-2.724 3.94-6.62 4.735-.248.05-.416.048-.471-.015-.04-.038-.05-.106 0-.19a.815.815 0 01.104-.145c2.12-2.5 3.736-6.189 4.195-7.253.035-.074.068-.147.096-.195M9.777 8.857c.2-.463.545-1.454 1.335-1.846.24-.12.537-.178.8-.185.061-.002.104 0 .12 0 2.217 0 4.276.306 6.004.833.013.006.053.02.066.025.16.054.24.127.24.218 0 .079-.042.137-.098.193a1.89 1.89 0 01-.11.096c-.397.335-1.598 1.201-3.858 2.068-.795.304-1.786.679-2.822.899-.61.13-2.87.474-1.677-2.3M7.6 7.264c.25-.048.415-.048.476.015.035.04.045.106-.002.19a.89.89 0 01-.104.142c-2.12 2.503-3.737 6.189-4.198 7.256a2.313 2.313 0 01-.096.195c-.04.073-.099.136-.2.142-.056.005-.135-.011-.251-.081C1.817 14.256.98 13.172.98 11.999c0-2.118 2.724-3.94 6.62-4.735Z"/>
  </g>
  <text x="185" y="34" font-family="Arial, Helvetica, sans-serif" font-size="12.2" font-weight="700" letter-spacing="0.25" fill="#002C5F">HYUNDAI</text>

  <rect x="278.5" y="0.5" width="141" height="55" rx="10" fill="#080A24" stroke="#20284a"/>
  <g transform="translate(289 12)" fill="none" stroke="#ffffff" stroke-width="1.7" stroke-linecap="round">
    <circle cx="15" cy="16" r="12"/>
    <path d="M4 16c7-8 15-8 22 0M6 22c6-5 12-5 18 0"/>
    <circle cx="23" cy="7" r="2.2" fill="#8ebcff" stroke="none"/>
  </g>
  <text x="326" y="25" font-family="Arial, Helvetica, sans-serif" font-size="11.8" font-weight="700" letter-spacing="0.5" fill="#ffffff">TURION</text>
  <text x="326" y="39" font-family="Arial, Helvetica, sans-serif" font-size="9.5" font-weight="600" letter-spacing="2" fill="#b9c6ff">SPACE</text>
</svg>
